<svg xmlns="http://www.w3.org/2000/svg" viewBox="0 0 538.61 434"><defs><style>.cls-1{fill:#29abe2;}.cls-2{fill:gray;}</style></defs><title>Asset 4</title><g id="Layer_2" data-name="Layer 2"><g id="Layer_1-2" data-name="Layer 1"><path class="cls-1" d="M146.82,140.36A146.82,146.82,0,1,0,293.64,287.18,146.82,146.82,0,0,0,146.82,140.36Zm-.31,270.86A123.74,123.74,0,1,1,270.25,287.49,123.74,123.74,0,0,1,146.51,411.22Z"/><rect class="cls-1" width="22.78" height="292.41" rx="11.39" ry="11.39"/><path class="cls-2" d="M397.17,352.52H336.48v50H403l-1.36,8.5H327.3V292h72.93v8.5H336.48V344h60.69Z"/><path class="cls-2" d="M529.43,356.26c0-23.29.17-45.56.68-57.46h-.51c-4.76,16-28.9,74.63-44,112.2h-9c-11.39-29.07-36.38-94.35-41.82-112.37h-.34c.85,13.6,1.19,41.31,1.19,61.71V411h-9.18V292h13.77c16.32,40.8,36.89,94.18,41.31,107.61h.34c2.72-8.67,26.52-68,43.18-107.61h13.6V411h-9.18Z"/></g></g></svg>