<svg xmlns="http://www.w3.org/2000/svg" viewBox="0 0 754.31 434"><defs><style>.cls-1{fill:#29abe2;}.cls-2{fill:gray;}</style></defs><title>Asset 5</title><g id="Layer_2" data-name="Layer 2"><g id="Layer_1-2" data-name="Layer 1"><path class="cls-1" d="M146.82,140.36A146.82,146.82,0,1,0,293.64,287.18,146.82,146.82,0,0,0,146.82,140.36Zm-.31,270.86A123.74,123.74,0,1,1,270.25,287.49,123.74,123.74,0,0,1,146.51,411.22Z"/><rect class="cls-1" width="22.78" height="292.41" rx="11.39" ry="11.39"/><path class="cls-1" d="M59.88,27.84H74.52c8,0,12.36,4.26,12.36,10.32,0,5-3,8.22-6.48,9.18a10.62,10.62,0,0,1,8,10.38c0,8.4-6.3,12.12-13.62,12.12H59.88ZM73.44,45.9c7.26,0,10-2.7,10-7.56,0-4.14-2.88-7.5-8.76-7.5H63.06V45.9ZM63.06,66.84H74.88C80.4,66.84,85,64.08,85,57.9c0-5.34-3.42-9-11.88-9H63.06Z"/><path class="cls-1" d="M117.12,64.14a34.29,34.29,0,0,0,.42,5.7h-2.88a19.71,19.71,0,0,1-.54-4.62c-1,2.22-3.66,5.34-9.84,5.34-7,0-10-4.5-10-9,0-6.6,5.1-9.6,14.1-9.6h5.7V48.9c0-3-.9-7-7.74-7-6.06,0-7,3.18-7.62,5.64h-3c.36-3.3,2.4-8.4,10.68-8.4,6.84,0,10.68,2.88,10.68,9.48Zm-2.94-9.6H108.3c-6.66,0-10.8,1.74-10.8,6.9,0,3.78,2.7,6.36,6.9,6.36,8.58,0,9.78-5.7,9.78-12.18Z"/><path class="cls-1" d="M150.18,25.62V61.2c0,2.88,0,5.64.06,8.64h-2.88c-.12-.72-.18-3.54-.18-5-1.5,3.66-4.86,5.76-10.08,5.76-7.8,0-12.48-6.36-12.48-15.36,0-9.24,5.1-16.08,13.26-16.08,6,0,8.4,2.58,9.3,4.5v-18ZM127.8,55.08c0,8.22,4.26,12.66,9.42,12.66,7.92,0,10.08-5.46,10.08-13.62,0-7.74-1.86-12.18-9.54-12.18C131.82,41.94,127.8,46.68,127.8,55.08Z"/><path class="cls-1" d="M180.18,64.14a34.29,34.29,0,0,0,.42,5.7h-2.88a19.71,19.71,0,0,1-.54-4.62c-1,2.22-3.66,5.34-9.84,5.34-7,0-10-4.5-10-9,0-6.6,5.1-9.6,14.1-9.6h5.7V48.9c0-3-.9-7-7.74-7-6.06,0-7,3.18-7.62,5.64h-3c.36-3.3,2.4-8.4,10.68-8.4,6.84,0,10.68,2.88,10.68,9.48Zm-2.94-9.6h-5.88c-6.66,0-10.8,1.74-10.8,6.9,0,3.78,2.7,6.36,6.9,6.36,8.58,0,9.78-5.7,9.78-12.18Z"/><path class="cls-1" d="M190.08,47.4c0-2.64,0-5.16-.06-7.56H193c.12,1,.18,4.86.12,5.7,1.32-3.06,3.78-6.42,10-6.42,5.34,0,10.08,3,10.08,11.28V69.84h-3v-19c0-5.34-2.22-8.82-7.44-8.82-7.14,0-9.6,5.94-9.6,12.48v15.3h-3Z"/><path class="cls-1" d="M264.18,49.2H242.76V66.84h23.46l-.48,3H239.52v-42h25.74v3h-22.5V46.2h21.42Z"/><path class="cls-1" d="M275.82,55.32C278.58,52.38,287,43.86,291,39.84h3.84L283,51.78l13.38,18.06h-3.72L280.8,53.7l-5,4.8V69.84h-3V25.62h3Z"/><path class="cls-1" d="M302.16,61.56c1,3.9,3.78,6.24,8.52,6.24,5.34,0,7.5-2.46,7.5-5.82s-1.44-5.1-8.16-6.72c-7.74-1.86-9.66-4.2-9.66-8.16,0-4.14,3.12-8,9.9-8s10,4.14,10.5,8.4h-3c-.54-2.52-2.52-5.64-7.62-5.64s-6.72,2.58-6.72,5c0,2.76,1.44,4.14,7.38,5.58,8.46,2,10.56,4.8,10.56,9.3,0,5.46-4.44,8.82-10.74,8.82-6.84,0-10.68-3.6-11.52-9Z"/><path class="cls-1" d="M329.46,55.2c.06,7.74,4,12.54,9.72,12.54s7.56-3.18,8.64-5.64h3.05c-1.25,4-4.44,8.46-11.81,8.46-9.12,0-12.66-7.86-12.66-15.48,0-8.58,4.26-16,13-16,9.24,0,12.17,8,12.17,13.62,0,.84,0,1.68,0,2.46Zm19-2.64c-.05-5.94-3.3-10.62-9.18-10.62-6.17,0-9,4.32-9.65,10.62Z"/><path class="cls-1" d="M362.16,55.32c2.76-2.94,11.16-11.46,15.17-15.48h3.84L369.3,51.78l13.37,18.06H379L367.14,53.7l-5,4.8V69.84h-3V25.62h3Z"/><path class="cls-1" d="M408.35,61.08c0,2.94.07,7.62.07,8.76h-2.88a48.22,48.22,0,0,1-.18-5.22c-1.27,3.54-4.32,5.94-9.66,5.94-4.32,0-9.84-1.68-9.84-10.86V39.84h2.94V59c0,4.38,1.38,8.64,7.32,8.64,6.71,0,9.24-3.78,9.24-12.36V39.84h3Z"/><path class="cls-1" d="M414.42,39.84H420V30.48h3v9.36h7.13v2.82H423v19.5c0,3.36.71,5.28,3.59,5.28a11.34,11.34,0,0,0,3.12-.36v2.64a10.51,10.51,0,0,1-3.71.54c-3.84,0-6-1.92-6-6.72V42.66h-5.58Z"/><path class="cls-1" d="M436.25,25.62h3v5.82h-3Zm0,14.22h3v30h-3Z"/><path class="cls-1" d="M450.59,69.84V42.66h-5.16V39.84h5.16V35.58c0-5,1.44-10.56,8.16-10.56a11.21,11.21,0,0,1,2.94.42v2.88a14.9,14.9,0,0,0-3.24-.36c-3.54,0-4.86,2.52-4.86,7.74v4.14h6.54v2.82h-6.54V69.84Z"/><path class="cls-1" d="M517.79,50.52c0-8.22.06-16.08.24-20.28h-.18c-1.68,5.64-10.2,26.34-15.54,39.6h-3.18c-4-10.26-12.84-33.3-14.76-39.66h-.12c.3,4.8.42,14.58.42,21.78V69.84h-3.24v-42h4.86c5.76,14.4,13,33.24,14.58,38H501c1-3.06,9.36-24,15.24-38H521v42h-3.24Z"/><path class="cls-1" d="M551.57,64.14a34.29,34.29,0,0,0,.42,5.7h-2.88a19.71,19.71,0,0,1-.54-4.62c-1,2.22-3.66,5.34-9.84,5.34-7,0-10-4.5-10-9,0-6.6,5.1-9.6,14.1-9.6h5.7V48.9c0-3-.9-7-7.74-7-6.06,0-7,3.18-7.62,5.64h-3c.36-3.3,2.4-8.4,10.68-8.4,6.84,0,10.68,2.88,10.68,9.48Zm-2.94-9.6h-5.88c-6.66,0-10.8,1.74-10.8,6.9,0,3.78,2.7,6.36,6.9,6.36,8.58,0,9.78-5.7,9.78-12.18Z"/><path class="cls-1" d="M564.47,25.62V44.88a10.46,10.46,0,0,1,9.9-5.76c4.26,0,10.14,2.16,10.14,11.64V69.84h-3V51.36c0-5.94-2.7-9.3-7.68-9.3-5.94,0-9.36,3.66-9.36,11V69.84h-3V25.62Z"/><path class="cls-1" d="M614.57,64.14a34.29,34.29,0,0,0,.42,5.7h-2.88a19.71,19.71,0,0,1-.54-4.62c-1,2.22-3.66,5.34-9.84,5.34-7,0-10-4.5-10-9,0-6.6,5.1-9.6,14.1-9.6h5.7V48.9c0-3-.9-7-7.74-7-6.06,0-7,3.18-7.62,5.64h-3c.36-3.3,2.4-8.4,10.68-8.4,6.84,0,10.68,2.88,10.68,9.48Zm-2.94-9.6h-5.88c-6.66,0-10.8,1.74-10.8,6.9,0,3.78,2.7,6.36,6.9,6.36,8.58,0,9.78-5.7,9.78-12.18Z"/><path class="cls-1" d="M624.17,61.56c1,3.9,3.78,6.24,8.52,6.24,5.34,0,7.5-2.46,7.5-5.82s-1.44-5.1-8.16-6.72c-7.74-1.86-9.66-4.2-9.66-8.16,0-4.14,3.12-8,9.9-8s10,4.14,10.5,8.4h-3c-.54-2.52-2.52-5.64-7.62-5.64s-6.72,2.58-6.72,5c0,2.76,1.44,4.14,7.38,5.58,8.46,2,10.56,4.8,10.56,9.3,0,5.46-4.44,8.82-10.74,8.82-6.84,0-10.68-3.6-11.52-9Z"/><path class="cls-1" d="M650.81,25.62h3v5.82h-3Zm0,14.22h3v30h-3Z"/><path class="cls-1" d="M663.35,61.56c1,3.9,3.78,6.24,8.52,6.24,5.34,0,7.5-2.46,7.5-5.82s-1.44-5.1-8.16-6.72c-7.74-1.86-9.66-4.2-9.66-8.16,0-4.14,3.12-8,9.9-8s10,4.14,10.5,8.4h-3c-.54-2.52-2.52-5.64-7.62-5.64s-6.72,2.58-6.72,5c0,2.76,1.44,4.14,7.38,5.58,8.46,2,10.56,4.8,10.56,9.3,0,5.46-4.44,8.82-10.74,8.82-6.84,0-10.68-3.6-11.52-9Z"/><path class="cls-1" d="M689.81,39.84c4.44,15.48,7,24.36,7.5,27h.06c.48-2.4,3.48-11.82,8.16-27h3.24c5.58,18.54,7.26,23.88,7.8,26.22h.06c.84-3.3,2.22-7.8,7.74-26.22h3.18l-9.48,30h-3.3c-3.24-10.62-7.14-23.64-7.74-26.4H707c-.6,2.94-4,13.68-7.92,26.4h-3.6l-8.82-30Z"/><path class="cls-1" d="M753.89,64.14a34.29,34.29,0,0,0,.42,5.7h-2.88a19.71,19.71,0,0,1-.54-4.62c-1,2.22-3.66,5.34-9.84,5.34-7,0-10-4.5-10-9,0-6.6,5.1-9.6,14.1-9.6h5.7V48.9c0-3-.9-7-7.74-7-6.06,0-7,3.18-7.62,5.64h-3c.36-3.3,2.4-8.4,10.68-8.4,6.84,0,10.68,2.88,10.68,9.48ZM751,54.54h-5.88c-6.66,0-10.8,1.74-10.8,6.9,0,3.78,2.7,6.36,6.9,6.36,8.58,0,9.78-5.7,9.78-12.18Z"/><path class="cls-1" d="M58.7,86.23h12c6.14,0,10.36,3.41,10.36,9.36s-4.17,9.61-10.7,9.61h-9v14.64H58.7Zm2.64,16.57h9.27c5.42,0,7.68-2.88,7.68-7.11,0-4.51-3-7.06-7.49-7.06H61.34Z"/><path class="cls-1" d="M105.51,107.79c0,6.67-3.7,12.62-10.85,12.62-6.48,0-10.51-5.33-10.51-12.57,0-6.87,3.79-12.58,10.75-12.58C101.28,95.26,105.51,100.25,105.51,107.79Zm-18.82,0c0,5.71,3.07,10.32,8.16,10.32s8.11-4.28,8.11-10.32c0-5.67-2.88-10.33-8.21-10.33S86.69,102.08,86.69,107.84Z"/><path class="cls-1" d="M111.46,119.84V84.46h2.4v35.38Z"/><path class="cls-1" d="M121.73,84.46h2.4v4.65h-2.4Zm0,11.37h2.4v24h-2.4Z"/><path class="cls-1" d="M128.73,95.83h4.47V88.35h2.4v7.48h5.71v2.26H135.6v15.6c0,2.69.57,4.23,2.88,4.23a9.11,9.11,0,0,0,2.5-.29v2.11a8.37,8.37,0,0,1-3,.43c-3.07,0-4.8-1.53-4.8-5.37V98.09h-4.47Z"/><path class="cls-1" d="M146.45,108.12c.05,6.2,3.17,10,7.77,10s6.05-2.55,6.92-4.52h2.44c-1,3.17-3.55,6.77-9.45,6.77-7.3,0-10.13-6.29-10.13-12.38,0-6.87,3.41-12.77,10.42-12.77,7.39,0,9.74,6.38,9.74,10.9,0,.67,0,1.34,0,2ZM161.66,106c0-4.75-2.64-8.5-7.34-8.5-4.95,0-7.2,3.46-7.73,8.5Z"/><path class="cls-1" d="M172.61,108.22c2.21-2.35,8.93-9.17,12.14-12.39h3.07l-9.5,9.56L189,119.84h-3l-9.46-12.92-4,3.84v9.08h-2.4V84.46h2.4Z"/><path class="cls-1" d="M192.53,101.88c0-2.11,0-4.13-.05-6h2.35c.1.77.14,3.89.1,4.57,1-2.45,3-5.14,8-5.14,4.27,0,8.06,2.4,8.06,9v15.56h-2.4V104.67c0-4.27-1.78-7.06-5.95-7.06-5.72,0-7.68,4.75-7.68,10v12.24h-2.4Z"/><path class="cls-1" d="M218.83,84.46h2.4v4.65h-2.4Zm0,11.37h2.4v24h-2.4Z"/><path class="cls-1" d="M231.5,108.22c2.21-2.35,8.93-9.17,12.15-12.39h3.07l-9.51,9.56,10.71,14.45h-3l-9.45-12.92-4,3.84v9.08h-2.4V84.46h2.4Z"/><path class="cls-1" d="M264.86,86.23h2.59v31.21H285.5l-.48,2.4H264.86Z"/><path class="cls-1" d="M290.68,86.23h12c6.15,0,10.37,3.41,10.37,9.36s-4.17,9.61-10.7,9.61h-9v14.64h-2.64Zm2.64,16.57h9.27c5.42,0,7.68-2.88,7.68-7.11,0-4.51-3-7.06-7.49-7.06h-9.46Z"/><path class="cls-1" d="M319.1,95.35c.53-3.88,3.31-7.68,9.27-7.68s8.83,3.89,8.83,7.92a6.59,6.59,0,0,1-4.42,6.63v.1c3.36,1,5.86,3.6,5.86,8.2,0,5.33-3.36,9.89-10.37,9.89-6.43,0-9.65-4.17-10.23-8.4h2.5a7.69,7.69,0,0,0,7.92,6.1c5.43,0,7.54-3.65,7.54-7.49,0-5-3.31-7.06-8-7.06h-1.87v-2.2h1.49c4.8,0,7-2,7-5.77,0-3.31-2.31-5.61-6.34-5.61s-6,2.21-6.77,5.37Z"/><path class="cls-1" d="M348.81,86.23v33.61h-2.59V86.23Z"/><path class="cls-1" d="M378,110.67c0,7.49-3.32,9.65-7.78,9.65a13.57,13.57,0,0,1-2.88-.29v-2.35a16.88,16.88,0,0,0,3,.24c4.51,0,5.08-3.51,5.08-7.3V86.23H378Z"/><path class="cls-1" d="M402,115.28a28.13,28.13,0,0,0,.33,4.56H400a15.62,15.62,0,0,1-.43-3.7c-.82,1.78-2.93,4.27-7.88,4.27-5.56,0-8-3.6-8-7.2,0-5.28,4.08-7.68,11.28-7.68h4.56v-2.45c0-2.4-.72-5.61-6.2-5.61-4.84,0-5.56,2.54-6.09,4.51h-2.4c.29-2.64,1.92-6.72,8.54-6.72,5.47,0,8.55,2.3,8.55,7.58Zm-2.35-7.68h-4.71c-5.33,0-8.64,1.39-8.64,5.52,0,3,2.16,5.09,5.52,5.09,6.87,0,7.83-4.57,7.83-9.75Z"/><path class="cls-1" d="M412.32,108.22c2.2-2.35,8.93-9.17,12.14-12.39h3.07l-9.5,9.56,10.7,14.45h-3l-9.46-12.92-4,3.84v9.08h-2.4V84.46h2.4Z"/><path class="cls-1" d="M449.61,115.28a26.7,26.7,0,0,0,.34,4.56h-2.31a16.2,16.2,0,0,1-.43-3.7c-.81,1.78-2.93,4.27-7.87,4.27-5.57,0-8-3.6-8-7.2,0-5.28,4.08-7.68,11.28-7.68h4.56v-2.45c0-2.4-.72-5.61-6.19-5.61-4.85,0-5.57,2.54-6.1,4.51h-2.4c.29-2.64,1.92-6.72,8.55-6.72,5.47,0,8.54,2.3,8.54,7.58Zm-2.35-7.68h-4.7c-5.33,0-8.64,1.39-8.64,5.52,0,3,2.16,5.09,5.52,5.09,6.86,0,7.82-4.57,7.82-9.75Z"/><path class="cls-1" d="M457.53,102.36c0-4,0-5.76,0-6.53h2.35c.05.77.1,2.31.1,5.38a9.09,9.09,0,0,1,8.35-5.95v2.59c-5,.34-8.35,3.79-8.35,9.51v12.48h-2.4Z"/><path class="cls-1" d="M471,95.83h4.46V88.35h2.4v7.48h5.72v2.26h-5.72v15.6c0,2.69.58,4.23,2.88,4.23a9.11,9.11,0,0,0,2.5-.29v2.11a8.37,8.37,0,0,1-3,.43c-3.07,0-4.8-1.53-4.8-5.37V98.09H471Z"/><path class="cls-1" d="M504.91,115.28a28.13,28.13,0,0,0,.33,4.56h-2.3a15.62,15.62,0,0,1-.43-3.7c-.82,1.78-2.93,4.27-7.88,4.27-5.56,0-8-3.6-8-7.2,0-5.28,4.08-7.68,11.28-7.68h4.56v-2.45c0-2.4-.72-5.61-6.2-5.61-4.84,0-5.56,2.54-6.09,4.51h-2.4c.29-2.64,1.92-6.72,8.54-6.72,5.47,0,8.55,2.3,8.55,7.58Zm-2.36-7.68h-4.7c-5.33,0-8.64,1.39-8.64,5.52,0,3,2.16,5.09,5.52,5.09,6.86,0,7.82-4.57,7.82-9.75Z"/><path class="cls-2" d="M397.17,352.52H336.48v50H403l-1.36,8.5H327.3V292h72.93v8.5H336.48V344h60.69Z"/><path class="cls-2" d="M529.43,356.26c0-23.29.17-45.56.68-57.46h-.51c-4.76,16-28.9,74.63-44,112.2h-9c-11.39-29.07-36.38-94.35-41.82-112.37h-.34c.85,13.6,1.19,41.31,1.19,61.71V411h-9.18V292h13.77c16.32,40.8,36.89,94.18,41.31,107.61h.34c2.72-8.67,26.52-68,43.18-107.61h13.6V411h-9.18Z"/></g></g></svg>